<svg xmlns="http://www.w3.org/2000/svg" width="331.04" height="197.901" viewBox="0 0 331.04 197.901">
  <g id="Grupo_29" data-name="Grupo 29" transform="translate(0 0)">
    <path id="Caminho_679" data-name="Caminho 679" d="M820.925,601.034a17.106,17.106,0,0,1-6.137-14.746c.675-5.508,4.857-10.57,10.281-11.74s11.607,2.068,13.255,7.366c.907-10.215,1.951-20.858,7.383-29.558a31.3,31.3,0,0,1,22.666-14.521,28.086,28.086,0,0,1,24.707,10.086c5.757,7.286,7.167,17.878,3.135,26.243-2.97,6.162-8.443,10.748-14.176,14.479a91.493,91.493,0,0,1-62.576,13.69Z" transform="translate(-567.473 -405.356)" fill="#a3d2ca"/>
    <path id="Caminho_680" data-name="Caminho 680" d="M924.4,545.668A150.967,150.967,0,0,0,880.04,605.65c-.423,1.037,1.26,1.488,1.679.463A149.289,149.289,0,0,1,925.629,546.9c.869-.708-.369-1.933-1.231-1.231Z" transform="translate(-607.921 -410.177)" fill="#fff"/>
    <path id="Caminho_681" data-name="Caminho 681" d="M271.567,559.95c5.821-4.919,9.357-12.689,8.43-20.254s-6.671-14.519-14.12-16.125-15.942,2.84-18.205,10.118c-1.245-14.031-2.68-28.649-10.14-40.6-6.754-10.819-18.453-18.56-31.132-19.945S180.371,476.992,172.464,487s-9.843,24.556-4.305,36.045c4.08,8.464,11.6,14.762,19.471,19.887a125.666,125.666,0,0,0,85.948,18.8" transform="translate(-165 -365.245)" fill="#a3d2ca"/>
    <path id="Caminho_682" data-name="Caminho 682" d="M214.152,483.9a205.61,205.61,0,0,1,28.654,28.453,206.206,206.206,0,0,1,32.273,53.932c.581,1.424-1.731,2.044-2.306.636a204.089,204.089,0,0,0-18.648-35.283,204.871,204.871,0,0,0-41.664-46.046c-1.194-.972.507-2.655,1.691-1.691Z" transform="translate(-194.15 -371.866)" fill="#fff"/>
    <path id="Caminho_683" data-name="Caminho 683" d="M563.385,387.414H424.5v-142.5a55.045,55.045,0,0,1,54.983-54.983H508.4a55.045,55.045,0,0,1,54.983,54.983Z" transform="translate(-325.759 -189.931)" fill="#f2f2f2"/>
    <path id="Caminho_684" data-name="Caminho 684" d="M534.466,387.416H424.5v-142.5A54.558,54.558,0,0,1,435,212.595c.253-.344.5-.684.764-1.02a54.97,54.97,0,0,1,11.7-11.358c.251-.183.5-.362.759-.542a54.853,54.853,0,0,1,11.975-6.263c.251-.1.508-.191.764-.282a54.8,54.8,0,0,1,11.837-2.791c.25-.034.507-.061.764-.088a55.663,55.663,0,0,1,11.836,0c.256.027.513.054.766.088A54.79,54.79,0,0,1,498,193.129c.256.092.512.187.764.283a54.717,54.717,0,0,1,11.836,6.17c.256.176.511.355.763.535a55.548,55.548,0,0,1,7,5.922,54.906,54.906,0,0,1,4.842,5.537c.259.335.511.675.763,1.019a54.558,54.558,0,0,1,10.5,32.322Z" transform="translate(-325.758 -189.933)" fill="#056676"/>
    <circle id="Elipse_20" data-name="Elipse 20" cx="6.088" cy="6.088" r="6.088" transform="translate(193.678 121.572)" fill="#a3d2ca"/>
    <path id="Caminho_685" data-name="Caminho 685" d="M583.391,478.488h-4.665l-2.219-17.993h6.885Z" transform="translate(-357.142 -285.273)" fill="#ffb8b8"/>
    <path id="Caminho_686" data-name="Caminho 686" d="M564.36,504.28h9v5.665H558.7A5.665,5.665,0,0,1,564.36,504.28Z" transform="translate(-346.108 -312.398)" fill="#2f2e41"/>
    <path id="Caminho_687" data-name="Caminho 687" d="M644.391,478.488h-4.665l-2.219-17.993h6.885Z" transform="translate(-394.931 -285.273)" fill="#ffb8b8"/>
    <path id="Caminho_688" data-name="Caminho 688" d="M625.36,504.28h9v5.665H619.7a5.665,5.665,0,0,1,5.665-5.665Z" transform="translate(-383.897 -312.398)" fill="#2f2e41"/>
    <path id="Caminho_689" data-name="Caminho 689" d="M696.949,447.626a4.088,4.088,0,0,1,1.716-6.028l15.858-43.708,7.8,4.259L704.22,443.917a4.11,4.11,0,0,1-7.271,3.709Z" transform="translate(-494.102 -318.76)" fill="#ffb8b8"/>
    <path id="Caminho_690" data-name="Caminho 690" d="M804.546,464.864a4.088,4.088,0,0,1-1.1-6.171l-4.912-46.235,8.88.406,2.042,45.478a4.11,4.11,0,0,1-4.908,6.522Z" transform="translate(-557.47 -327.785)" fill="#ffb8b8"/>
    <circle id="Elipse_21" data-name="Elipse 21" cx="9.346" cy="9.346" r="9.346" transform="translate(223.565 52.343)" fill="#ffb8b8"/>
    <path id="Caminho_691" data-name="Caminho 691" d="M768.308,437.756H740.133l.034-.219c.051-.328,5.021-32.891,1.355-43.544a4.5,4.5,0,0,1,2.309-5.549h0c5.24-2.468,15.3-5.506,23.789,1.868a10.743,10.743,0,0,1,3.6,8.9Z" transform="translate(-521.291 -311.193)" fill="#a3d2ca"/>
    <path id="Caminho_692" data-name="Caminho 692" d="M733.7,414.546l-12.685-2.573,5.946-14.09a5.326,5.326,0,1,1,10.314,2.663Z" transform="translate(-509.45 -316.28)" fill="#a3d2ca"/>
    <path id="Caminho_693" data-name="Caminho 693" d="M795.638,420.93l-.763-17.481c-.578-3.286,1.3-6.393,4.2-6.9s5.72,1.773,6.3,5.084l2.866,16.334Z" transform="translate(-555.139 -317.885)" fill="#a3d2ca"/>
    <path id="Caminho_694" data-name="Caminho 694" d="M764.9,517.049c4.534,17.266,5.028,39.218,3.805,63.164l-6.088-.761-11.035-45.661-6.088,46.422-6.849-.38c-2.046-25.125-4.038-46.694-.761-60.881Z" transform="translate(-518.82 -392.578)" fill="#2f2e41"/>
    <path id="Caminho_695" data-name="Caminho 695" d="M765,337.048a3.019,3.019,0,0,1-5.208-1.677,3.065,3.065,0,0,1,0-.592c.117-1.124.767-2.144.611-3.331a1.746,1.746,0,0,0-.32-.818c-1.389-1.86-4.651.832-5.962-.852-.8-1.033.141-2.659-.476-3.813-.814-1.523-3.226-.772-4.739-1.606-1.683-.928-1.582-3.51-.474-5.081a7.992,7.992,0,0,1,6.059-3.085,16.253,16.253,0,0,1,6.846,1.336,13.681,13.681,0,0,1,6.469,4.485,10.95,10.95,0,0,1,1.107,9.323C768.348,333.226,766.42,335.532,765,337.048Z" transform="translate(-525.928 -268.137)" fill="#2f2e41"/>
    <path id="Caminho_696" data-name="Caminho 696" d="M546.874,708.1H265.948a.453.453,0,0,1,0-.906H546.874a.453.453,0,1,1,0,.906Z" transform="translate(-227.256 -510.371)" fill="#3f3d56"/>
    <path id="Caminho_697" data-name="Caminho 697" d="M549.439,412.724H499.973a2.46,2.46,0,0,1-2.473-2.441V299.872a2.46,2.46,0,0,1,2.473-2.441h49.466a2.46,2.46,0,0,1,2.473,2.441V410.283A2.46,2.46,0,0,1,549.439,412.724Z" transform="translate(-370.982 -256.526)" fill="#fff"/>
    <rect id="Retângulo_1505" data-name="Retângulo 1505" width="54.412" height="0.761" transform="translate(126.518 76.63)" fill="#5eaaa8"/>
    <rect id="Retângulo_1506" data-name="Retângulo 1506" width="54.412" height="0.761" transform="translate(126.709 120.05)" fill="#5eaaa8"/>
    <rect id="Retângulo_1507" data-name="Retângulo 1507" width="0.761" height="115.674" transform="translate(143.641 40.905)" fill="#5eaaa8"/>
    <rect id="Retângulo_1508" data-name="Retângulo 1508" width="0.761" height="115.674" transform="translate(162.666 40.905)" fill="#5eaaa8"/>
  </g>
</svg>
