<svg xmlns="http://www.w3.org/2000/svg" width="244.451" height="238.614" viewBox="0 0 244.451 238.614">
  <g id="Grupo_28" data-name="Grupo 28" transform="translate(-0.001 -0.004)">
    <path id="Caminho_673" data-name="Caminho 673" d="M455.74,205.133H389.87a5.669,5.669,0,0,0-5.662,5.662V357.19l-.755.23-16.159,4.948a3.022,3.022,0,0,1-3.771-2l-48.065-157a3.021,3.021,0,0,1,2-3.771l24.9-7.625,72.188-22.1,24.9-7.625a3.016,3.016,0,0,1,3.771,2l12.286,40.131Z" transform="translate(-300.551 -151.467)" fill="#f2f2f2"/>
    <path id="Caminho_674" data-name="Caminho 674" d="M445.744,186.824l-14.807-48.367a6.414,6.414,0,0,0-8.013-4.258l-35.009,10.716-72.184,22.1-35.009,10.72a6.422,6.422,0,0,0-4.258,8.013l50.609,165.3a6.427,6.427,0,0,0,6.137,4.541,6.336,6.336,0,0,0,1.876-.283l24-7.345.755-.234v-.789l-.755.23-24.221,7.417a5.667,5.667,0,0,1-7.07-3.756l-50.605-165.3a5.654,5.654,0,0,1,3.756-7.07l35.009-10.72,72.184-22.1,35.009-10.72a5.656,5.656,0,0,1,7.07,3.756l14.739,48.148.234.755h.785Z" transform="translate(-276.182 -133.913)" fill="#3f3d56"/>
    <path id="Caminho_675" data-name="Caminho 675" d="M385.236,190.8a3.4,3.4,0,0,1-3.25-2.4l-4.862-15.88a3.4,3.4,0,0,1,2.254-4.243l66.409-20.331a3.4,3.4,0,0,1,4.243,2.254l4.862,15.88a3.4,3.4,0,0,1-2.254,4.243l-66.409,20.331A3.388,3.388,0,0,1,385.236,190.8Z" transform="translate(-338.929 -142.554)" fill="#5eaaa8"/>
    <circle id="Elipse_16" data-name="Elipse 16" cx="7.549" cy="7.549" r="7.549" transform="translate(64.226 1.872)" fill="#5eaaa8"/>
    <circle id="Elipse_17" data-name="Elipse 17" cx="4.78" cy="4.78" r="4.78" transform="translate(66.994 4.641)" fill="#fff"/>
    <path id="Caminho_676" data-name="Caminho 676" d="M663.105,453.372H535.526a3.212,3.212,0,0,1-3.208-3.208V297.3a3.212,3.212,0,0,1,3.208-3.208H663.105a3.212,3.212,0,0,1,3.208,3.208V450.163A3.212,3.212,0,0,1,663.105,453.372Z" transform="translate(-435.638 -233.627)" fill="#e6e6e6"/>
    <path id="Caminho_677" data-name="Caminho 677" d="M581.688,274.087H502.235a6.426,6.426,0,0,0-6.417,6.417V434.429l.755-.23V280.5a5.669,5.669,0,0,1,5.662-5.662h79.688Zm69.262,0H502.235a6.426,6.426,0,0,0-6.417,6.417V453.377a6.426,6.426,0,0,0,6.417,6.417H650.951a6.426,6.426,0,0,0,6.417-6.417V280.5A6.426,6.426,0,0,0,650.951,274.087Zm5.662,179.29a5.669,5.669,0,0,1-5.662,5.662H502.235a5.669,5.669,0,0,1-5.662-5.662V280.5a5.669,5.669,0,0,1,5.662-5.662H650.951a5.669,5.669,0,0,1,5.662,5.662Z" transform="translate(-412.915 -221.176)" fill="#3f3d56"/>
    <path id="Caminho_678" data-name="Caminho 678" d="M681.666,279.489H612.215a3.4,3.4,0,0,1-3.4-3.4V259.484a3.4,3.4,0,0,1,3.4-3.4h69.451a3.4,3.4,0,0,1,3.4,3.4v16.608A3.4,3.4,0,0,1,681.666,279.489Z" transform="translate(-483.263 -209.97)" fill="#5eaaa8"/>
    <circle id="Elipse_18" data-name="Elipse 18" cx="7.549" cy="7.549" r="7.549" transform="translate(156.128 32.151)" fill="#5eaaa8"/>
    <circle id="Elipse_19" data-name="Elipse 19" cx="4.598" cy="4.598" r="4.598" transform="translate(159.079 35.102)" fill="#fff"/>
  </g>
</svg>
