<svg xmlns="http://www.w3.org/2000/svg" width="52" height="52" viewBox="0 0 52 52">
  <g id="iconfinder_facebook_605511" transform="translate(-124.23)">
    <path id="Caminho_27" data-name="Caminho 27" d="M176.23,26a26,26,0,1,1-26-26A26,26,0,0,1,176.23,26Z" transform="translate(0)" fill="#476fb0"/>
    <g id="Grupo_12" data-name="Grupo 12" transform="translate(144.038 13.808)" opacity="0.2">
      <path id="Caminho_28" data-name="Caminho 28" d="M377.764,160.057l-.17-.02v-.046l-.17-.02v-.046l-.17-.02v-.045l-.169-.02v-.046l-.17-.02v-.046l-.17-.02v-.045l-.17-.02V159.6l-.169-.02v-.045l-.17-.02v-.046l-.17-.02V159.4l-.17-.02v-.045l-.169-.02v-.046l-.17-.02V159.2l-.17-.02v-.045l-.17-.02v-.045l-.169-.02V159l-.17-.02v-.046l-.17-.02v-.045l-.17-.02v-.045l-.169-.02v-.046l-.17-.02v-.046l-.17-.02v-.045l-.17-.02v-.045l-.169-.02v-.046l-.17-.02v-.046l-.17-.02v-.046l-.17-.02v-.045l-.169-.02v-.046l-.17-.02v-.045l-.17-.02v-.046l-.17-.02v-.046l-.169-.02v-.046l-.17-.02v-.045l-.17-.02v-.046l-.17-.02v-.046l-.169-.02v-.046l-.17-.02v-.046l-.17-.02v-.046l-.17-.02v-.046l-.169-.02v-.046l-.17-.02v-.045l-.17-.02v-.045c-.045-.006-.1-.013-.17-.02v-.046l-.169-.02v-.045l-.17-.02V157.1l-.17-.02v-.046l-.17-.02v-.046l-.17-.02V156.9l-.169-.02v-.046l-.17-.02v-.046l-.17-.02V156.7l-.17-.02v-.045l-.17-.02v-.046l-.169-.02V156.5l-.17-.02v-.045l-.17-.02v-.046l-.17-.02v-.045l-.17-.02v-.045l-.169-.02v-.046l-.17-.02v-.045l-.17-.02v-.046c-.044-.006-.1-.013-.169-.02v-.046l-.17-.02v-.046l-.17-.02v-.046l-.169-.02v-.046l-.171-.02v-.046l-.169-.02v-.046l-.17-.02v-.045l-.17-.02v-.046l-.169-.02v-.046l-.17-.02v-.045l-.17-.02v-.046l-.17-.02v-.045l-.17-.02v-.046l-.169-.02v-.046l-.17-.02v-.046l-.17-.02v-.046l-.169-.02v-.046l-.17-.02v-.045l-.17-.02V154.8l-.17-.02v-.045l-.17-.02v-.046l-.169-.02V154.6l-.17-.02v-.049l-.17-.02v-.045l-.169-.02V154.4l-.171-.02v-.046l-.169-.02v-.046l-.17-.02V154.2l-.17-.02v-.046l-.169-.02v-.045l-.17-.02V154l-.17-.02v-.046l-.17-.02v-.045l-.17-.02v-.046c-.044-.006-.1-.013-.169-.02v-.046l-.17-.02v-.046l-.17-.02v-.046l-.169-.02v-.045l-.17-.02v-.045l-.17-.02v-.046l-.17-.02v-.046l-.169-.02v-.045l-.17-.02v-.045c-.045-.006-.1-.013-.17-.02v-.046l-.17-.02v-.046l-.17-.02v-.046l-.169-.02v-.046l-.17-.02v-.046l-.17-.02v-.046a31.191,31.191,0,0,0-3.424-.175c-3.389,0-5.708,2.069-5.708,5.867v3.273h-3.832v4.439h.17v.066h.17v.066h.169v.066h.17v.066h.17v.066h.17v.066h.169v.066h.17v.065h.17v.066h.17v.066H348v.065h.169v.066h.17v.066h.17v.066h.17v.065h.169v.066h.17v.066h.17v.066h.17v.066h.169v.066h.17v.066h.17v.066h.1v9.94h.17v.066h.17v.066h.17v.066h.169v.066h.17v.066h.17v.066h.17v.066h.169v.066h.17v.066h.17v.066h.169v.066H352v.066h.17v.066h.17v.066h.17v.066h.169v.066h.17v.066h.17v.066h.17v.066h.17v.066h.17v.066h.169v.066h.17v.066h.169v.066h.17v.066h.17v.066h.17v.066h.169v.066h.17v.066h.17v.066h.17v.066h.17v.066h.169v.066h.17v.066h.17v.066h.169v.066h.17v.066h.17v.066h.17v.066h.169v.066h.17v.066h.17v.066h.17v.066h.17v.066h.17v.066h.169v.066h.17v.066h.17v.066h.169v.066h.17v.066h.17v.065h.17v.066h.169v.066h.17v.066h.17v.066h.17v.065h.169v.066h.17v.066h.17v.065h.17v.066h.169v.066h.17v.066h.17v.066h.17v.065H361v.066h.17v.066h.169v.066h.17v.066h.17v.066h.17v.066h.169v.066h.17v.066h.17v.066h.17v.066h.169v.066h.17v.066h.17v.066h.17v.066h.169v.066h.17v.066h.17v.066h.17v.066h.169v.066h.17v.066h.17v.066h.17v.066h.169v.065h.17v.066h.17v.066h.17v.066h.169v.066h.17v.065h.17v.066h.17v.066h.169v.065h.17v.066h.17V184h.17v.066h.169v.066h.17v.065h.17v.066h.17v.066h.169v.066h.17v.066h.17v.066h.17v.066h.17v.066h.169v.065h.17v.066h.17v.066h.169v.066h.17v.052a25.723,25.723,0,0,0,8.864-24.855l-.072-.008v-.049Z" transform="translate(-346.136 -152.644)" fill="#29235c"/>
    </g>
    <path id="Caminho_29" data-name="Caminho 29" d="M358.373,166.213l.572-4.439h-4.4V158.94c0-1.285.359-2.16,2.2-2.16l2.348,0v-3.969a31.191,31.191,0,0,0-3.424-.175c-3.389,0-5.708,2.069-5.708,5.867v3.273h-3.832v4.439h3.832V177.6h4.582V166.213Z" transform="translate(-202.387 -139.118)" fill="#fff"/>
  </g>
</svg>
